# xmcd
#
# Track frame offsets: 
#        151
#        33642
#        47040
#        61931
#        81459
#        94149
#        115761
#        134071
#        153564
#        167542
#        191406
#        211607
#        230942
#        245078
#        275004
#
# Disc length: 3942 seconds
#
# Revision: 0
# Processed by: cddbd v1.5.2PL0 Copyright (c) Steve Scherf et al.
# Submitted via: ExactAudioCopy v0.99pb5
#
DISCID=dc0f640f
DTITLE=Night Hawks - Nu Country Gone... Live!
DYEAR=2005
DGENRE=Country
TTITLE0=The Boyz Are Back - Guitars and Cadillacs
TTITLE1=Girls Gone Wild
TTITLE2=What About Now
TTITLE3=Wow Do You Like Me Now
TTITLE4=Something Like That
TTITLE5=Someone Else's Cadillac
TTITLE6=Kick My Ass
TTITLE7=I'm Bad, I'm Nationwide
TTITLE8=Hillbilly Shoes
TTITLE9=Drums... Gone Wild!
TTITLE10=Daddy Wan't Sell The Farm
TTITLE11=Who Invented The Wheel
TTITLE12=Six Dayz On The Road
TTITLE13=Keep Your Hands To Yourself
TTITLE14=If Tomorrow Never Comes (Bonus Track)
EXTD=
EXTT0=
EXTT1=
EXTT2=
EXTT3=
EXTT4=
EXTT5=
EXTT6=
EXTT7=
EXTT8=
EXTT9=
EXTT10=
EXTT11=
EXTT12=
EXTT13=
EXTT14=
PLAYORDER=
